<svg enable-background="new 0 0 24 24" height="512" viewBox="0 0 24 24" width="512" xmlns="http://www.w3.org/2000/svg"><path d="m12 15c-1.654 0-3-1.346-3-3s1.346-3 3-3 3 1.346 3 3-1.346 3-3 3zm0-5c-1.103 0-2 .897-2 2s.897 2 2 2 2-.897 2-2-.897-2-2-2z"/><path d="m12 10c-.276 0-.5-.224-.5-.5v-5c0-.276.224-.5.5-.5s.5.224.5.5v5c0 .276-.224.5-.5.5z"/><path d="m12 8c-.11 0-.221-.037-.312-.109l-2.5-2c-.216-.173-.25-.487-.078-.703.174-.215.487-.249.703-.078l2.187 1.75 2.188-1.75c.217-.171.531-.137.703.078.172.216.138.53-.078.703l-2.5 2c-.092.072-.203.109-.313.109z"/><path d="m12 5c-.11 0-.221-.037-.312-.109l-2.5-2c-.119-.096-.188-.239-.188-.391s.069-.295.188-.391l2.5-2c.184-.146.441-.146.625 0l2.5 2c.118.096.187.239.187.391s-.069.295-.188.391l-2.5 2c-.091.072-.202.109-.312.109zm-1.699-2.5 1.699 1.36 1.699-1.36-1.699-1.36z"/><path d="m12 20c-.276 0-.5-.224-.5-.5v-5c0-.276.224-.5.5-.5s.5.224.5.5v5c0 .276-.224.5-.5.5z"/><path d="m14.5 19c-.11 0-.22-.036-.312-.109l-2.188-1.751-2.188 1.75c-.217.173-.53.137-.703-.078-.172-.216-.138-.53.078-.703l2.5-2c.184-.146.441-.146.625 0l2.5 2c.216.173.25.487.078.703-.098.124-.244.188-.39.188z"/><path d="m12 24c-.11 0-.221-.037-.312-.109l-2.5-2c-.119-.096-.188-.239-.188-.391s.069-.295.188-.391l2.5-2c.184-.146.441-.146.625 0l2.5 2c.118.096.187.239.187.391s-.069.295-.188.391l-2.5 2c-.091.072-.202.109-.312.109zm-1.699-2.5 1.699 1.36 1.699-1.36-1.699-1.36z"/><path d="m9.835 11.25c-.085 0-.171-.021-.25-.067l-4.33-2.5c-.239-.138-.321-.444-.183-.683.137-.24.443-.32.683-.183l4.33 2.5c.239.138.321.444.183.683-.092.161-.261.25-.433.25z"/><path d="m5.121 11.415c-.2 0-.389-.121-.466-.318-.101-.257.026-.547.284-.648l2.608-1.02-.42-2.769c-.042-.273.145-.528.419-.569.27-.038.528.145.569.419l.481 3.165c.035.231-.095.456-.312.541l-2.981 1.165c-.06.023-.121.034-.182.034z"/><path d="m2.522 9.915c-.087 0-.173-.022-.25-.067-.131-.076-.221-.207-.244-.358l-.481-3.165c-.035-.231.095-.455.312-.541l2.981-1.165c.142-.055.3-.043.432.033s.222.207.245.358l.482 3.165c.035.231-.095.456-.312.541l-2.983 1.165c-.058.023-.12.034-.182.034zm.074-3.345.327 2.151 2.027-.791-.328-2.152z"/><path d="m18.495 16.25c-.085 0-.171-.021-.25-.067l-4.33-2.5c-.239-.138-.321-.444-.183-.683.138-.24.443-.319.683-.183l4.33 2.5c.239.138.321.444.183.683-.092.161-.261.25-.433.25z"/><path d="m16.378 17.915c-.242 0-.456-.177-.493-.425l-.481-3.165c-.035-.231.095-.456.312-.541l2.981-1.165c.256-.1.547.027.647.284.101.257-.026.547-.284.648l-2.608 1.02.421 2.77c.042.273-.146.528-.419.569-.025.003-.051.005-.076.005z"/><path d="m18.978 19.415c-.087 0-.173-.022-.25-.067-.132-.076-.222-.208-.244-.358l-.482-3.165c-.035-.231.095-.456.312-.541l2.982-1.165c.143-.055.301-.043.432.033.132.076.222.208.244.358l.481 3.165c.035.231-.095.456-.312.541l-2.981 1.165c-.059.023-.121.034-.182.034zm.072-3.345.328 2.151 2.026-.792-.327-2.151z"/><path d="m5.505 16.25c-.172 0-.341-.089-.433-.25-.139-.239-.057-.545.183-.683l4.33-2.5c.238-.137.545-.057.683.183.139.239.057.545-.183.683l-4.33 2.5c-.079.046-.165.067-.25.067z"/><path d="m7.622 17.915c-.025 0-.051-.002-.076-.006-.273-.042-.461-.296-.419-.569l.421-2.77-2.608-1.02c-.258-.101-.385-.391-.284-.648s.39-.385.647-.284l2.981 1.165c.218.085.348.31.312.541l-.481 3.166c-.037.248-.251.425-.493.425z"/><path d="m5.022 19.415c-.062 0-.123-.011-.182-.034l-2.981-1.165c-.218-.085-.348-.31-.312-.541l.481-3.165c.022-.15.112-.282.244-.358.133-.076.291-.088.432-.033l2.982 1.165c.218.085.348.31.312.541l-.481 3.165c-.022.15-.112.282-.244.358-.078.045-.164.067-.251.067zm-2.426-1.985 2.026.792.328-2.152-2.027-.792z"/><path d="m14.165 11.25c-.172 0-.341-.089-.433-.25-.139-.239-.057-.545.183-.683l4.33-2.5c.238-.138.545-.058.683.183.139.239.057.545-.183.683l-4.33 2.5c-.079.046-.165.067-.25.067z"/><path d="m18.879 11.415c-.061 0-.122-.011-.182-.034l-2.981-1.165c-.218-.085-.348-.31-.312-.541l.481-3.165c.041-.273.304-.458.569-.419.273.042.461.296.419.569l-.421 2.77 2.608 1.02c.258.101.385.391.284.648-.076.196-.265.317-.465.317z"/><path d="m21.478 9.915c-.062 0-.123-.011-.182-.034l-2.982-1.165c-.218-.085-.348-.31-.312-.541l.482-3.165c.022-.15.112-.282.244-.358s.291-.088.432-.033l2.981 1.165c.218.085.348.31.312.541l-.481 3.165c-.022.15-.112.282-.244.358-.078.045-.164.067-.25.067zm-2.428-1.985 2.027.792.327-2.151-2.026-.792z"/></svg>